<svg width="55" height="35" viewBox="0 0 55 35" fill="none" xmlns="http://www.w3.org/2000/svg">
<g clip-path="url(#clip0)">
<path fill-rule="evenodd" clip-rule="evenodd" d="M10.7866 35C4.82679 35 0 30.1798 0 24.2331C0 18.4945 4.49654 13.8062 10.1617 13.4814C10.8323 5.92636 17.1834 0 24.9215 0C31.8314 0 37.6337 4.71876 39.2748 11.1018C40.3825 10.772 41.5612 10.5944 42.7755 10.5944C49.528 10.5944 54.9949 16.059 54.9949 22.8023C54.9949 29.5455 49.5229 35.0051 42.7755 35.0051H10.7866V35Z" fill="#93B8FF"/>
<path fill-rule="evenodd" clip-rule="evenodd" d="M10.7866 35C4.82679 35 0 30.1798 0 24.2331C0 19.5905 2.86051 15.3893 7.06236 14.1208C19.0328 10.5183 25.9376 31.0018 44.9958 34.8021C44.2744 34.9341 43.5326 35.0051 42.7755 35.0051H10.7866V35Z" fill="#F063B8"/>
<path fill-rule="evenodd" clip-rule="evenodd" d="M10.7868 35C10.2634 35 9.75027 34.9645 9.24219 34.8884C19.9627 34.2643 25.5669 23.5887 33.1475 16.3127C35.9928 13.5829 38.6856 10.5842 42.7757 10.5842C49.5281 10.5842 54.9951 16.0489 54.9951 22.7921C54.9951 29.5354 49.523 34.9949 42.7757 34.9949H10.7868V35Z" fill="#9C69E2"/>
</g>
<defs>
<clipPath id="clip0">
<rect width="55" height="35" fill="white"/>
</clipPath>
</defs>
</svg>
